<svg width="23" height="23" viewBox="0 0 23 23" fill="none" xmlns="http://www.w3.org/2000/svg">
<path d="M11.0517 2.94995C11.31 2.15493 12.4348 2.15493 12.6931 2.94995L14.1448 7.41802C14.2604 7.77357 14.5917 8.01429 14.9655 8.01429H19.6635C20.4995 8.01429 20.847 9.08398 20.1708 9.57533L16.37 12.3367C16.0675 12.5565 15.941 12.946 16.0565 13.3015L17.5083 17.7696C17.7666 18.5646 16.8567 19.2257 16.1804 18.7344L12.3796 15.9729C12.0772 15.7532 11.6676 15.7532 11.3652 15.9729L7.56441 18.7344C6.88812 19.2257 5.97819 18.5646 6.23651 17.7696L7.68827 13.3015C7.8038 12.946 7.67724 12.5565 7.3748 12.3367L3.57403 9.57533C2.89774 9.08398 3.24531 8.01429 4.08124 8.01429H8.77925C9.15309 8.01429 9.48441 7.77357 9.59994 7.41802L11.0517 2.94995Z" fill="#B0AFAE"/>
<path fill-rule="evenodd" clip-rule="evenodd" d="M12.6954 2.94893C12.4371 2.15391 11.3124 2.15391 11.054 2.94893L9.60227 7.417C9.48674 7.77254 9.15542 8.01326 8.78158 8.01326H4.08357C3.24764 8.01326 2.90007 9.08295 3.57636 9.5743L7.37713 12.3357C7.67957 12.5555 7.80613 12.945 7.6906 13.3005L6.23884 17.7686C5.98052 18.5636 6.89045 19.2247 7.56674 18.7333L11.3675 15.9719C11.67 15.7522 12.0795 15.7522 12.3819 15.9719L14.6182 17.5966V7.93927C14.399 7.84204 14.2246 7.65532 14.1472 7.417L12.6954 2.94893Z" fill="#FFB649"/>
</svg>
