<svg width="144" height="24" viewBox="0 0 144 24" fill="none" xmlns="http://www.w3.org/2000/svg">
<g clip-path="url(#clip0_1_494)">
<path d="M0 1.719C0 0.7695 0.789 0 1.7625 0H22.2375C23.211 0 24 0.7695 24 1.719V22.281C24 23.2305 23.211 24 22.2375 24H1.7625C0.789 24 0 23.2305 0 22.281V1.719ZM7.4145 20.091V9.2535H3.813V20.091H7.4145ZM5.6145 7.773C6.87 7.773 7.6515 6.942 7.6515 5.901C7.629 4.8375 6.8715 4.029 5.6385 4.029C4.4055 4.029 3.6 4.839 3.6 5.901C3.6 6.942 4.3815 7.773 5.5905 7.773H5.6145ZM12.9765 20.091V14.0385C12.9765 13.7145 13.0005 13.3905 13.0965 13.1595C13.356 12.513 13.9485 11.8425 14.9445 11.8425C16.248 11.8425 16.7685 12.8355 16.7685 14.2935V20.091H20.37V13.875C20.37 10.545 18.594 8.997 16.224 8.997C14.313 8.997 13.4565 10.047 12.9765 10.7865V10.824H12.9525C12.9605 10.8115 12.9685 10.799 12.9765 10.7865V9.2535H9.3765C9.4215 10.2705 9.3765 20.091 9.3765 20.091H12.9765Z" fill="white"/>
</g>
<path d="M50 15L55.19 12L50 9V15ZM61.56 7.17C61.69 7.64 61.78 8.27 61.84 9.07C61.91 9.87 61.94 10.56 61.94 11.16L62 12C62 14.19 61.84 15.8 61.56 16.83C61.31 17.73 60.73 18.31 59.83 18.56C59.36 18.69 58.5 18.78 57.18 18.84C55.88 18.91 54.69 18.94 53.59 18.94L52 19C47.81 19 45.2 18.84 44.17 18.56C43.27 18.31 42.69 17.73 42.44 16.83C42.31 16.36 42.22 15.73 42.16 14.93C42.09 14.13 42.06 13.44 42.06 12.84L42 12C42 9.81 42.16 8.2 42.44 7.17C42.69 6.27 43.27 5.69 44.17 5.44C44.64 5.31 45.5 5.22 46.82 5.16C48.12 5.09 49.31 5.06 50.41 5.06L52 5C56.19 5 58.8 5.16 59.83 5.44C60.73 5.69 61.31 6.27 61.56 7.17Z" fill="white"/>
<path d="M102.46 6C101.69 6.35 100.86 6.58 100 6.69C100.88 6.16 101.56 5.32 101.88 4.31C101.05 4.81 100.13 5.16 99.16 5.36C98.37 4.5 97.26 4 96 4C93.65 4 91.73 5.92 91.73 8.29C91.73 8.63 91.77 8.96 91.84 9.27C88.28 9.09 85.11 7.38 83 4.79C82.63 5.42 82.42 6.16 82.42 6.94C82.42 8.43 83.17 9.75 84.33 10.5C83.62 10.5 82.96 10.3 82.38 10V10.03C82.38 12.11 83.86 13.85 85.82 14.24C85.1907 14.4122 84.5301 14.4362 83.89 14.31C84.1616 15.1625 84.6935 15.9084 85.411 16.4429C86.1285 16.9775 86.9954 17.2737 87.89 17.29C86.3736 18.4904 84.494 19.1393 82.56 19.13C82.22 19.13 81.88 19.11 81.54 19.07C83.44 20.29 85.7 21 88.12 21C96 21 100.33 14.46 100.33 8.79C100.33 8.6 100.33 8.42 100.32 8.23C101.16 7.63 101.88 6.87 102.46 6Z" fill="white"/>
<path d="M133.028 2.00123C133.758 1.99843 134.487 2.00576 135.217 2.02323L135.411 2.03023C135.635 2.03823 135.856 2.04823 136.123 2.06023C137.187 2.11023 137.913 2.27823 138.55 2.52523C139.21 2.77923 139.766 3.12323 140.322 3.67923C140.83 4.17884 141.224 4.78318 141.475 5.45023C141.722 6.08723 141.89 6.81423 141.94 7.87823C141.952 8.14423 141.962 8.36623 141.97 8.59023L141.976 8.78423C141.994 9.51342 142.001 10.2428 141.999 10.9722L142 11.7182V13.0282C142.002 13.758 141.995 14.4877 141.977 15.2172L141.971 15.4112C141.963 15.6352 141.953 15.8562 141.941 16.1232C141.891 17.1872 141.721 17.9132 141.475 18.5502C141.225 19.218 140.831 19.8228 140.322 20.3222C139.822 20.8306 139.217 21.224 138.55 21.4752C137.913 21.7222 137.187 21.8902 136.123 21.9402C135.856 21.9522 135.635 21.9622 135.411 21.9702L135.217 21.9762C134.488 21.994 133.758 22.0017 133.028 21.9992L132.282 22.0002H130.973C130.243 22.0027 129.514 21.995 128.784 21.9772L128.59 21.9712C128.353 21.9626 128.115 21.9526 127.878 21.9412C126.814 21.8912 126.088 21.7212 125.45 21.4752C124.783 21.2246 124.178 20.8311 123.679 20.3222C123.17 19.8225 122.776 19.2178 122.525 18.5502C122.278 17.9132 122.11 17.1872 122.06 16.1232C122.049 15.8859 122.039 15.6486 122.03 15.4112L122.025 15.2172C122.007 14.4877 121.998 13.758 122 13.0282V10.9722C121.997 10.2428 122.005 9.51343 122.022 8.78423L122.029 8.59023C122.037 8.36623 122.047 8.14423 122.059 7.87823C122.109 6.81323 122.277 6.08823 122.524 5.45023C122.775 4.78285 123.17 4.17868 123.68 3.68023C124.179 3.17098 124.783 2.7768 125.45 2.52523C126.088 2.27823 126.813 2.11023 127.878 2.06023L128.59 2.03023L128.784 2.02523C129.513 2.0068 130.243 1.99847 130.972 2.00023L133.028 2.00123ZM132 7.00123C131.338 6.99186 130.68 7.11425 130.065 7.3613C129.45 7.60834 128.891 7.97511 128.419 8.44029C127.947 8.90546 127.572 9.45977 127.317 10.071C127.061 10.6822 126.929 11.3382 126.929 12.0007C126.929 12.6633 127.061 13.3192 127.317 13.9305C127.572 14.5417 127.947 15.096 128.419 15.5612C128.891 16.0264 129.45 16.3931 130.065 16.6402C130.68 16.8872 131.338 17.0096 132 17.0002C133.326 17.0002 134.598 16.4734 135.536 15.5358C136.473 14.5981 137 13.3263 137 12.0002C137 10.6741 136.473 9.40238 135.536 8.4647C134.598 7.52701 133.326 7.00123 132 7.00123ZM132 9.00123C132.399 8.99389 132.795 9.06603 133.165 9.21344C133.535 9.36085 133.872 9.58057 134.157 9.85978C134.441 10.139 134.667 10.4721 134.821 10.8396C134.976 11.2071 135.055 11.6016 135.055 12.0002C135.055 12.3988 134.976 12.7934 134.822 13.1609C134.668 13.5285 134.442 13.8617 134.158 14.141C133.873 14.4203 133.536 14.6401 133.166 14.7876C132.795 14.9352 132.4 15.0074 132.001 15.0002C131.205 15.0002 130.442 14.6842 129.88 14.1216C129.317 13.5589 129.001 12.7959 129.001 12.0002C129.001 11.2046 129.317 10.4415 129.88 9.87891C130.442 9.3163 131.205 9.00023 132.001 9.00023L132 9.00123ZM137.25 5.50123C136.927 5.51414 136.622 5.65138 136.399 5.8842C136.175 6.11702 136.05 6.42736 136.05 6.75023C136.05 7.0731 136.175 7.38344 136.399 7.61626C136.622 7.84908 136.927 7.98632 137.25 7.99923C137.582 7.99923 137.899 7.86753 138.134 7.63311C138.368 7.39869 138.5 7.08075 138.5 6.74923C138.5 6.41771 138.368 6.09977 138.134 5.86535C137.899 5.63093 137.582 5.49923 137.25 5.49923V5.50123Z" fill="white"/>
<defs>
<clipPath id="clip0_1_494">
<rect width="24" height="24" fill="white"/>
</clipPath>
</defs>
</svg>
