<svg width="23" height="23" viewBox="0 0 23 23" fill="none" xmlns="http://www.w3.org/2000/svg">
<path d="M10.6444 2.94995C10.9027 2.15493 12.0274 2.15493 12.2857 2.94995L13.7375 7.41802C13.853 7.77357 14.1843 8.01429 14.5582 8.01429H19.2562C20.0921 8.01429 20.4397 9.08398 19.7634 9.57533L15.9626 12.3367C15.6602 12.5565 15.5336 12.946 15.6492 13.3015L17.1009 17.7696C17.3592 18.5646 16.4493 19.2257 15.773 18.7344L11.9723 15.9729C11.6698 15.7532 11.2603 15.7532 10.9578 15.9729L7.15706 18.7344C6.48077 19.2257 5.57084 18.5646 5.82916 17.7696L7.28092 13.3015C7.39645 12.946 7.26989 12.5565 6.96745 12.3367L3.16668 9.57533C2.4904 9.08398 2.83796 8.01429 3.67389 8.01429H8.3719C8.74574 8.01429 9.07707 7.77357 9.19259 7.41802L10.6444 2.94995Z" fill="#FFB649"/>
</svg>
