<svg width="23" height="23" viewBox="0 0 23 23" fill="none" xmlns="http://www.w3.org/2000/svg">
<path d="M10.8297 2.94995C11.088 2.15493 12.2127 2.15493 12.471 2.94995L13.9228 7.41802C14.0383 7.77357 14.3696 8.01429 14.7435 8.01429H19.4415C20.2774 8.01429 20.625 9.08398 19.9487 9.57533L16.1479 12.3367C15.8455 12.5565 15.7189 12.946 15.8345 13.3015L17.2862 17.7696C17.5445 18.5646 16.6346 19.2257 15.9583 18.7344L12.1576 15.9729C11.8551 15.7532 11.4456 15.7532 11.1431 15.9729L7.34236 18.7344C6.66608 19.2257 5.75614 18.5646 6.01446 17.7696L7.46623 13.3015C7.58175 12.946 7.45519 12.5565 7.15275 12.3367L3.35198 9.57533C2.6757 9.08398 3.02326 8.01429 3.85919 8.01429H8.5572C8.93104 8.01429 9.26237 7.77357 9.37789 7.41802L10.8297 2.94995Z" fill="#FFB649"/>
</svg>
