<svg width="23" height="23" viewBox="0 0 23 23" fill="none" xmlns="http://www.w3.org/2000/svg">
<path d="M10.237 2.94995C10.4953 2.15493 11.6201 2.15493 11.8784 2.94995L13.3301 7.41802C13.4457 7.77357 13.777 8.01429 14.1508 8.01429H18.8488C19.6848 8.01429 20.0323 9.08398 19.3561 9.57533L15.5553 12.3367C15.2528 12.5565 15.1263 12.946 15.2418 13.3015L16.6936 17.7696C16.9519 18.5646 16.042 19.2257 15.3657 18.7344L11.5649 15.9729C11.2625 15.7532 10.8529 15.7532 10.5505 15.9729L6.74971 18.7344C6.07343 19.2257 5.16349 18.5646 5.42181 17.7696L6.87358 13.3015C6.9891 12.946 6.86254 12.5565 6.5601 12.3367L2.75933 9.57533C2.08305 9.08398 2.43061 8.01429 3.26654 8.01429H7.96455C8.33839 8.01429 8.66972 7.77357 8.78524 7.41802L10.237 2.94995Z" fill="#FFB649"/>
</svg>
